<?xml version="1.0" ?><svg id="Layer_1" style="enable-background:new 0 0 512 512;" version="1.1" viewBox="0 0 512 512" xml:space="preserve" xmlns="http://www.w3.org/2000/svg" xmlns:xlink="http://www.w3.org/1999/xlink"><style type="text/css">
	.st0{fill:#F26136;}
	.st1{opacity:0.1;}
	.st2{fill:#F97658;}
	.st3{fill:#FFFFFF;}
</style><g><g id="XMLID_3411_"><path class="st0" d="M463.2,512H48.8C21.8,512,0,490.2,0,463.2V48.8C0,21.8,21.8,0,48.8,0h414.5    C490.2,0,512,21.8,512,48.8v414.5C512,490.2,490.2,512,463.2,512z" id="XMLID_3414_"/><path class="st1" d="M472,40H40v432l40,40h383.2c26.9,0,48.8-21.8,48.8-48.8V80L472,40z" id="XMLID_3413_"/><rect class="st2" height="432" id="XMLID_3412_" transform="matrix(-1.836970e-016 1 -1 -1.836970e-016 511.5 0.5)" width="432" x="39.5" y="40"/></g><g id="XMLID_2574_"><g id="XMLID_1864_"><g id="XMLID_1870_"><g id="XMLID_1880_"><g id="XMLID_1883_"><polygon class="st3" id="XMLID_1884_" points="370.3,155.8 300.6,155.8 300.6,86.1 310.8,86.1 310.8,145.7 370.3,145.7               "/></g><g id="XMLID_1881_"><polygon class="st3" id="XMLID_1882_" points="375.4,431 103.3,431 103.3,81 310.6,81 375.4,148.7 375.4,256 365.2,256         365.2,152.8 306.3,91.2 113.5,91.2 113.5,420.8 365.2,420.8 365.2,396.8 375.4,396.8       "/></g></g><g id="XMLID_1871_"><g id="XMLID_1878_"><rect class="st3" height="10.2" id="XMLID_1879_" width="138" x="145.9" y="154.8"/></g><g id="XMLID_1876_"><rect class="st3" height="10.2" id="XMLID_1877_" width="90.9" x="145.9" y="184.8"/></g><g id="XMLID_1874_"><rect class="st3" height="10.2" id="XMLID_1875_" width="186.9" x="145.9" y="214.7"/></g><g id="XMLID_1872_"><rect class="st3" height="10.2" id="XMLID_1873_" width="186.9" x="145.9" y="244.7"/></g></g></g><g id="XMLID_1865_"><path class="st3" d="M370.3,409.3L315.5,330h23.4v-79.1h62.9V330h23.4L370.3,409.3z M334.9,340.2l35.5,51.3      l35.5-51.3h-14.2v-79.1h-42.5v79.1H334.9z" id="XMLID_1866_"/></g></g><g id="XMLID_2397_"><path class="st3" d="M158.3,334h-5.7v25.6h5.7c2.8,0,5-0.9,6.7-2.8c1.7-1.9,2.5-4.3,2.5-7.3v-5.4     c0-2.9-0.8-5.4-2.5-7.3C163.4,335,161.1,334,158.3,334z" id="XMLID_2398_"/><path class="st3" d="M197.6,342.8c1-0.9,1.6-2.1,1.6-3.6c0-1.7-0.6-3-1.7-3.9c-1.1-0.8-2.7-1.3-4.8-1.3h-5.6v10     h6.3C195.1,344.1,196.6,343.6,197.6,342.8z" id="XMLID_2399_"/><path class="st3" d="M274.2,306.6H86.8v80.5h187.4l-39.9-40.2L274.2,306.6z M173.3,349.5     c0,4.4-1.4,7.9-4.2,10.7c-2.8,2.8-6.4,4.1-10.8,4.1h-11.6v-35h11.6c4.4,0,8,1.4,10.8,4.2c2.8,2.8,4.2,6.3,4.2,10.7V349.5z      M203.8,361.8c-2.1,1.7-5.1,2.6-8.9,2.6h-13.7v-35h11.5c3.9,0,6.9,0.8,9.1,2.4c2.2,1.6,3.3,4,3.3,7.2c0,1.5-0.4,2.9-1.3,4.2     c-0.9,1.2-2.1,2.2-3.6,2.8c2.2,0.4,4,1.3,5.2,2.9c1.2,1.6,1.8,3.4,1.8,5.5C207.1,357.6,206,360.1,203.8,361.8z" id="XMLID_2484_"/><path class="st3" d="M195.1,348.4h-0.3h-7.7v11.3h7.9c2,0,3.6-0.5,4.7-1.4c1.1-0.9,1.6-2.3,1.6-4     c0-1.8-0.5-3.2-1.6-4.2C198.6,349,197.1,348.5,195.1,348.4z" id="XMLID_2486_"/></g></g></g></svg>